<?xml version="1.0" encoding="utf-8"?>
<!-- Generator: Adobe Illustrator 22.0.1, SVG Export Plug-In . SVG Version: 6.00 Build 0)  -->
<svg version="1.1" id="Layer_1" xmlns="http://www.w3.org/2000/svg" xmlns:xlink="http://www.w3.org/1999/xlink" x="0px" y="0px"
	 viewBox="0 0 646.3 589" style="enable-background:new 0 0 646.3 589;" xml:space="preserve">
<style type="text/css">
	.st0{opacity:0.77;}
	.st1{opacity:0.6;}
	.st2{fill:none;stroke:#D600FF;stroke-width:2;}
	.st3{fill:none;stroke:#FFFFFF;}
	.st4{opacity:0.4;}
	.st5{fill:none;stroke:#1FF2FD;stroke-width:2;}
</style>
<g transform="translate(-909.663 100.214)" class="st0">
	<g transform="translate(940.163 -70)" class="st1">
		<path class="st2" d="M-26-27.2v578"/>
		<path class="st2" d="M7.1-27.2v578"/>
		<path class="st2" d="M40.2-27.2v578"/>
		<path class="st2" d="M73.3-27.2v578"/>
		<path class="st2" d="M106.4-27.2v578"/>
		<path class="st2" d="M139.5-27.2v578"/>
		<path class="st2" d="M172.6-27.2v578"/>
		<path class="st2" d="M205.7-27.2v578"/>
		<path class="st2" d="M605.8-26.9H-26"/>
		<path class="st2" d="M605.8,6.2H-26"/>
		<path class="st2" d="M605.8,39.3H-26"/>
		<path class="st2" d="M605.8,72.4H-26"/>
		<path class="st2" d="M605.8,101.5H-26"/>
		<path class="st2" d="M605.8,133.5H-26"/>
		<path class="st2" d="M605.8,165.6H-26"/>
		<path class="st2" d="M605.8,197.7H-26"/>
		<path class="st2" d="M605.8,229.8H-26"/>
		<path class="st2" d="M605.8,261.9H-26"/>
		<path class="st2" d="M605.8,294H-26"/>
		<path class="st2" d="M605.8,326.1H-26"/>
		<path class="st2" d="M605.8,358.2H-26"/>
		<path class="st2" d="M605.8,390.3H-26"/>
		<path class="st2" d="M605.8,422.4H-26"/>
		<path class="st2" d="M605.8,451.5H-26"/>
		<path class="st2" d="M605.8,484.6H-26"/>
		<path class="st2" d="M605.8,517.7H-26"/>
		<path class="st2" d="M605.8,550.8H-26"/>
		<path class="st2" d="M238.8-27.2v578"/>
		<path class="st2" d="M271.9-27.2v578"/>
		<path class="st2" d="M305-27.2v578"/>
		<path class="st2" d="M338.1-27.2v578"/>
		<path class="st2" d="M371.2-27.2v578"/>
		<path class="st2" d="M404.3-27.2v578"/>
		<path class="st2" d="M437.4-27.2v578"/>
		<path class="st2" d="M470.6-27.2v578"/>
		<path class="st2" d="M503.7-27.2v578"/>
		<path class="st2" d="M536.8-27.2v578"/>
		<path class="st2" d="M569.9-27.2v578"/>
		<path class="st2" d="M603-27.2v578"/>
	</g>
	<g transform="translate(940.163 -70)" class="st1">
		<g transform="matrix(1, 0, 0, 1, -30.5, -30.21)">
			<path class="st3" d="M4.5,3v578"/>
		</g>
		<g transform="matrix(1, 0, 0, 1, -30.5, -30.21)">
			<path class="st3" d="M37.6,3v578"/>
		</g>
		<g transform="matrix(1, 0, 0, 1, -30.5, -30.21)">
			<path class="st3" d="M70.7,3v578"/>
		</g>
		<g transform="matrix(1, 0, 0, 1, -30.5, -30.21)">
			<path class="st3" d="M103.8,3v578"/>
		</g>
		<g transform="matrix(1, 0, 0, 1, -30.5, -30.21)">
			<path class="st3" d="M136.9,3v578"/>
		</g>
		<g transform="matrix(1, 0, 0, 1, -30.5, -30.21)">
			<path class="st3" d="M170,3v578"/>
		</g>
		<g transform="matrix(1, 0, 0, 1, -30.5, -30.21)">
			<path class="st3" d="M203.1,3v578"/>
		</g>
		<g transform="matrix(1, 0, 0, 1, -30.5, -30.21)">
			<path class="st3" d="M236.2,3v578"/>
		</g>
		<g transform="matrix(1, 0, 0, 1, -30.5, -30.21)">
			<path class="st3" d="M636.3,3.3H4.5"/>
		</g>
		<g transform="matrix(1, 0, 0, 1, -30.5, -30.21)">
			<path class="st3" d="M636.3,36.4H4.5"/>
		</g>
		<g transform="matrix(1, 0, 0, 1, -30.5, -30.21)">
			<path class="st3" d="M636.3,69.5H4.5"/>
		</g>
		<g transform="matrix(1, 0, 0, 1, -30.5, -30.21)">
			<path class="st3" d="M636.3,102.6H4.5"/>
		</g>
		<g transform="matrix(1, 0, 0, 1, -30.5, -30.21)">
			<path class="st3" d="M636.3,131.7H4.5"/>
		</g>
		<g transform="matrix(1, 0, 0, 1, -30.5, -30.21)">
			<path class="st3" d="M636.3,163.8H4.5"/>
		</g>
		<g transform="matrix(1, 0, 0, 1, -30.5, -30.21)">
			<path class="st3" d="M636.3,195.9H4.5"/>
		</g>
		<g transform="matrix(1, 0, 0, 1, -30.5, -30.21)">
			<path class="st3" d="M636.3,228H4.5"/>
		</g>
		<g transform="matrix(1, 0, 0, 1, -30.5, -30.21)">
			<path class="st3" d="M636.3,260.1H4.5"/>
		</g>
		<g transform="matrix(1, 0, 0, 1, -30.5, -30.21)">
			<path class="st3" d="M636.3,292.2H4.5"/>
		</g>
		<g transform="matrix(1, 0, 0, 1, -30.5, -30.21)">
			<path class="st3" d="M636.3,324.2H4.5"/>
		</g>
		<g transform="matrix(1, 0, 0, 1, -30.5, -30.21)">
			<path class="st3" d="M636.3,356.3H4.5"/>
		</g>
		<g transform="matrix(1, 0, 0, 1, -30.5, -30.21)">
			<path class="st3" d="M636.3,388.4H4.5"/>
		</g>
		<g transform="matrix(1, 0, 0, 1, -30.5, -30.21)">
			<path class="st3" d="M636.3,420.5H4.5"/>
		</g>
		<g transform="matrix(1, 0, 0, 1, -30.5, -30.21)">
			<path class="st3" d="M636.3,452.6H4.5"/>
		</g>
		<g transform="matrix(1, 0, 0, 1, -30.5, -30.21)">
			<path class="st3" d="M636.3,481.7H4.5"/>
		</g>
		<g transform="matrix(1, 0, 0, 1, -30.5, -30.21)">
			<path class="st3" d="M636.3,514.8H4.5"/>
		</g>
		<g transform="matrix(1, 0, 0, 1, -30.5, -30.21)">
			<path class="st3" d="M636.3,547.9H4.5"/>
		</g>
		<g transform="matrix(1, 0, 0, 1, -30.5, -30.21)">
			<path class="st3" d="M636.3,581H4.5"/>
		</g>
		<g transform="matrix(1, 0, 0, 1, -30.5, -30.21)">
			<path class="st3" d="M269.3,3v578"/>
		</g>
		<g transform="matrix(1, 0, 0, 1, -30.5, -30.21)">
			<path class="st3" d="M302.4,3v578"/>
		</g>
		<g transform="matrix(1, 0, 0, 1, -30.5, -30.21)">
			<path class="st3" d="M335.5,3v578"/>
		</g>
		<g transform="matrix(1, 0, 0, 1, -30.5, -30.21)">
			<path class="st3" d="M368.6,3v578"/>
		</g>
		<g transform="matrix(1, 0, 0, 1, -30.5, -30.21)">
			<path class="st3" d="M401.7,3v578"/>
		</g>
		<g transform="matrix(1, 0, 0, 1, -30.5, -30.21)">
			<path class="st3" d="M434.8,3v578"/>
		</g>
		<g transform="matrix(1, 0, 0, 1, -30.5, -30.21)">
			<path class="st3" d="M467.9,3v578"/>
		</g>
		<g transform="matrix(1, 0, 0, 1, -30.5, -30.21)">
			<path class="st3" d="M501.1,3v578"/>
		</g>
		<g transform="matrix(1, 0, 0, 1, -30.5, -30.21)">
			<path class="st3" d="M534.2,3v578"/>
		</g>
		<g transform="matrix(1, 0, 0, 1, -30.5, -30.21)">
			<path class="st3" d="M567.3,3v578"/>
		</g>
		<g transform="matrix(1, 0, 0, 1, -30.5, -30.21)">
			<path class="st3" d="M600.4,3v578"/>
		</g>
		<g transform="matrix(1, 0, 0, 1, -30.5, -30.21)">
			<path class="st3" d="M633.5,3v578"/>
		</g>
	</g>
	<g transform="translate(637.163 -161)" class="st4">
		<g transform="matrix(1, 0, 0, 1, 272.5, 60.79)">
			<path class="st5" d="M11.5,7v578"/>
		</g>
		<g transform="matrix(1, 0, 0, 1, 272.5, 60.79)">
			<path class="st5" d="M44.6,7v578"/>
		</g>
		<g transform="matrix(1, 0, 0, 1, 272.5, 60.79)">
			<path class="st5" d="M77.7,7v578"/>
		</g>
		<g transform="matrix(1, 0, 0, 1, 272.5, 60.79)">
			<path class="st5" d="M110.8,7v578"/>
		</g>
		<g transform="matrix(1, 0, 0, 1, 272.5, 60.79)">
			<path class="st5" d="M143.9,7v578"/>
		</g>
		<g transform="matrix(1, 0, 0, 1, 272.5, 60.79)">
			<path class="st5" d="M177,7v578"/>
		</g>
		<g transform="matrix(1, 0, 0, 1, 272.5, 60.79)">
			<path class="st5" d="M210.1,7v578"/>
		</g>
		<g transform="matrix(1, 0, 0, 1, 272.5, 60.79)">
			<path class="st5" d="M243.2,7v578"/>
		</g>
		<g transform="matrix(1, 0, 0, 1, 272.5, 60.79)">
			<path class="st5" d="M643.3,7.3H11.5"/>
		</g>
		<g transform="matrix(1, 0, 0, 1, 272.5, 60.79)">
			<path class="st5" d="M643.3,40.4H11.5"/>
		</g>
		<g transform="matrix(1, 0, 0, 1, 272.5, 60.79)">
			<path class="st5" d="M643.3,73.5H11.5"/>
		</g>
		<g transform="matrix(1, 0, 0, 1, 272.5, 60.79)">
			<path class="st5" d="M643.3,106.6H11.5"/>
		</g>
		<g transform="matrix(1, 0, 0, 1, 272.5, 60.79)">
			<path class="st5" d="M643.3,135.7H11.5"/>
		</g>
		<g transform="matrix(1, 0, 0, 1, 272.5, 60.79)">
			<path class="st5" d="M643.3,167.8H11.5"/>
		</g>
		<g transform="matrix(1, 0, 0, 1, 272.5, 60.79)">
			<path class="st5" d="M643.3,199.9H11.5"/>
		</g>
		<g transform="matrix(1, 0, 0, 1, 272.5, 60.79)">
			<path class="st5" d="M643.3,232H11.5"/>
		</g>
		<g transform="matrix(1, 0, 0, 1, 272.5, 60.79)">
			<path class="st5" d="M643.3,264.1H11.5"/>
		</g>
		<g transform="matrix(1, 0, 0, 1, 272.5, 60.79)">
			<path class="st5" d="M643.3,296.2H11.5"/>
		</g>
		<g transform="matrix(1, 0, 0, 1, 272.5, 60.79)">
			<path class="st5" d="M643.3,328.2H11.5"/>
		</g>
		<g transform="matrix(1, 0, 0, 1, 272.5, 60.79)">
			<path class="st5" d="M643.3,360.3H11.5"/>
		</g>
		<g transform="matrix(1, 0, 0, 1, 272.5, 60.79)">
			<path class="st5" d="M643.3,392.4H11.5"/>
		</g>
		<g transform="matrix(1, 0, 0, 1, 272.5, 60.79)">
			<path class="st5" d="M643.3,424.5H11.5"/>
		</g>
		<g transform="matrix(1, 0, 0, 1, 272.5, 60.79)">
			<path class="st5" d="M643.3,456.6H11.5"/>
		</g>
		<g transform="matrix(1, 0, 0, 1, 272.5, 60.79)">
			<path class="st5" d="M643.3,485.7H11.5"/>
		</g>
		<g transform="matrix(1, 0, 0, 1, 272.5, 60.79)">
			<path class="st5" d="M643.3,518.8H11.5"/>
		</g>
		<g transform="matrix(1, 0, 0, 1, 272.5, 60.79)">
			<path class="st5" d="M643.3,551.9H11.5"/>
		</g>
		<g transform="matrix(1, 0, 0, 1, 272.5, 60.79)">
			<path class="st5" d="M643.3,585H11.5"/>
		</g>
		<g transform="matrix(1, 0, 0, 1, 272.5, 60.79)">
			<path class="st5" d="M276.3,7v578"/>
		</g>
		<g transform="matrix(1, 0, 0, 1, 272.5, 60.79)">
			<path class="st5" d="M309.4,7v578"/>
		</g>
		<g transform="matrix(1, 0, 0, 1, 272.5, 60.79)">
			<path class="st5" d="M342.5,7v578"/>
		</g>
		<g transform="matrix(1, 0, 0, 1, 272.5, 60.79)">
			<path class="st5" d="M375.6,7v578"/>
		</g>
		<g transform="matrix(1, 0, 0, 1, 272.5, 60.79)">
			<path class="st5" d="M408.7,7v578"/>
		</g>
		<g transform="matrix(1, 0, 0, 1, 272.5, 60.79)">
			<path class="st5" d="M441.8,7v578"/>
		</g>
		<g transform="matrix(1, 0, 0, 1, 272.5, 60.79)">
			<path class="st5" d="M474.9,7v578"/>
		</g>
		<g transform="matrix(1, 0, 0, 1, 272.5, 60.79)">
			<path class="st5" d="M508.1,7v578"/>
		</g>
		<g transform="matrix(1, 0, 0, 1, 272.5, 60.79)">
			<path class="st5" d="M541.2,7v578"/>
		</g>
		<g transform="matrix(1, 0, 0, 1, 272.5, 60.79)">
			<path class="st5" d="M574.3,7v578"/>
		</g>
		<g transform="matrix(1, 0, 0, 1, 272.5, 60.79)">
			<path class="st5" d="M607.4,7v578"/>
		</g>
		<g transform="matrix(1, 0, 0, 1, 272.5, 60.79)">
			<path class="st5" d="M640.5,7v578"/>
		</g>
	</g>
</g>
</svg>
