<svg xmlns="http://www.w3.org/2000/svg" width="183.058" height="71.337" viewBox="0 0 183.058 71.337"><defs><style>.a{fill:#8d8d8d;}.b{fill:#5c5c5c;}.c{fill:#5b5b5b;}.d{fill:#585858;}.e{fill:#898989;}.f{fill:#888;}.g{fill:#555;}.h{fill:#8b8b8b;}.i{fill:#8e8e8e;}</style></defs><path class="a" d="M49.013,71.424a10.5,10.5,0,0,1-2.744.77q-21.962.072-43.925.023c-.7,0-1.4-.131-2.344-.226V1.13H13.736a12.467,12.467,0,0,1,.124,11.258,2.54,2.54,0,0,0-.572,2.032q-.009,21.46.014,42.919c.063-14.823-.108-29.647.1-44.469l.548-.629c.257.1.513.2.775.3,1.549,1.863,1.233,4.125,1.242,6.276C16.02,29.748,15.98,40.677,16,51.6c0,2.017-.212,4.081.928,6.339,5.561,1.377,11.4.224,17.138.7.528.02,1.057.039,1.586.044,3.9.135,7.827-.461,11.689.5a2.172,2.172,0,0,1,1.072,1.057C48.9,63.96,47.814,67.753,49.013,71.424Z" transform="translate(0 -1.033)"/><path class="b" d="M654.528,351.2l.086,11.245H640.24l1.243-12.016C645.781,351.477,650.23,350.021,654.528,351.2Z" transform="translate(-585.464 -320.449)"/><path class="c" d="M222.611.81a1.565,1.565,0,0,1-.2.751H167.782q-.409-.157-.353-.428.061-.3.171-.3Z" transform="translate(-153.098 -0.741)"/><path class="c" d="M561.175,189.167q-.02-21.853-.026-43.714a22.76,22.76,0,0,1,.318-2.876.627.627,0,0,1,.369,0,1.371,1.371,0,0,1,.328.284l-.042,46.486a.84.84,0,0,1-1.052.156Z" transform="translate(-513.067 -130.354)"/><path class="c" d="M1394.288,1.737a1.556,1.556,0,0,1-.179-.737l30.876.007a25.493,25.493,0,0,1-4.137.7C1412,1.77,1403.142,1.738,1394.288,1.737Z" transform="translate(-1274.835 -0.914)"/><path class="a" d="M817,463.5c.352,1.324,1.423-3.093,1.439-1.765.1,8.053-.377,22.572-.374,30.629l.447.488-.448.486a17.167,17.167,0,0,1-.951-3.85C817.007,481.067,817.026,471.92,817,463.5Z" transform="translate(-747.101 -422.002)"/><path class="a" d="M973.193,522.013c0-7.974-.057-15.948.063-23.921.021-1.4.795-2.789,1.221-4.183L974.152,522c-.158.112-.317.224-.476.338C973.515,522.237,973.354,522.124,973.193,522.013Z" transform="translate(-889.919 -451.653)"/><path class="c" d="M527.483,122.642l.079,1.051-26.5-.044a32.05,32.05,0,0,1,5.329-.964C513.417,122.572,520.451,122.641,527.483,122.642Z" transform="translate(-458.191 -112.129)"/><path class="a" d="M815.879,130.873l.142-.9c.243-.428.5-.415.763-.02,0,4.883.08,9.767-.052,14.645a15.151,15.151,0,0,1-1.122,3.793Z" transform="translate(-745.83 -118.564)"/><path class="c" d="M1940.59,814.2c1.94-.284,3.874-.635,5.823-.837,3.277-.342,6.565-.582,9.849-.866l1.358,1.7Z" transform="translate(-1774.562 -742.986)"/><path class="d" d="M1395.2,823.368c.086-.271.184-.783.257-.779,4.317.249,8.632.541,12.947.828Z" transform="translate(-1275.833 -752.212)"/><path class="d" d="M667.805,350.763l-13.045-.77,13.168-.043A1.519,1.519,0,0,1,667.805,350.763Z" transform="translate(-598.742 -320.01)"/><path class="e" d="M829.46,823.374V822.4h12.31l.009.009a.612.612,0,0,1,.185.625q-.1.31-.2.308Z" transform="translate(-758.495 -752.039)"/><path class="f" d="M161.179.159a1.7,1.7,0,0,0,.182.73q.005,4.845.01,9.689l.239.581-.364.513a3.271,3.271,0,0,0-.807-.193l-.039-.033L160.414.166a.88.88,0,0,1,.766-.007Z" transform="translate(-146.677 -0.068)"/><path class="f" d="M561.09,689.636l1.052-.156q-.021,5.7-.043,11.4Z" transform="translate(-513.086 -630.491)"/><path class="g" d="M1869.677,481.962l-.807-.392Z" transform="translate(-1708.977 -440.369)"/><path class="g" d="M1911.517,512.16l-1.047-.98Z" transform="translate(-1747.018 -467.446)"/><path class="g" d="M1922.326,522.3l-1.186-1.022Z" transform="translate(-1756.775 -476.681)"/><path class="a" d="M973.27,823.231q.007-.466.015-.933l.95-.018Z" transform="translate(-890.001 -751.929)"/><path class="c" d="M1921.16,521.28c.008.032.02.061.029.092.034.008.067.018.1.024Z" transform="translate(-1756.794 -476.681)"/><path class="c" d="M1316,62.636c-3.721-5.4-7.6-10.694-11.409-16.027a1.289,1.289,0,0,1-1.157-.93,1.365,1.365,0,0,1-.941-.957l-2.752-2.139a.706.706,0,0,1-.807-.393c.358-.527.6-1.33,1.091-1.534,2.408-1,5.035-1.566,7.3-2.8,6.809-3.7,10.329-11.676,9.039-19.839-1.342-8.462-6.365-14.44-14.132-15.919-4.258-.815-8.692-.711-13.047-1.02-1.568.576-3.2.267-4.791.293-8.641.145-17.293-.23-25.936.209-2.6,3.582-.629,7.908-1.894,11.709-.941,5.259.331,10.634-.822,15.895-.978,1.711-2.663,1.257-4.169,1.352-1.808.115-3.735-.209-5.117,1.414-.941,3.707-1.475,7.4.441,11h10.829c0,8.932-.031,17.054.031,25.175a25.921,25.921,0,0,0,.649,4.021,46.042,46.042,0,0,1,13.2.049,23.418,23.418,0,0,0,.75-4c.131-8.492.162-16.986.227-25.479,1.165-1.2,2.443-1.014,3.724-.87a3.5,3.5,0,0,0-1.417.59,5.094,5.094,0,0,0,1.643.441c5.989-.52,9.986,2.486,13.071,7.217,1.276,1.958,2.633,3.864,3.975,5.778q5.732,8.177,11.488,16.341c3.946-.928,7.957-.171,11.922-.428,1.354-.086,2.953.484,3.749-1.271C1319.172,67.874,1317.737,65.155,1316,62.636Zm-38.6-20.722a3.883,3.883,0,0,0,.874-.091l.019.536A3.112,3.112,0,0,0,1277.4,41.914ZM1291.523,31c-6.16-.07-12.313-.017-18.8-.017V13.393c7.249,0,14.531-.184,21.8.086,3.106.116,5.206,2.4,6.625,5.147,1.469,1.922.87,3.972.368,6.015C1299.647,29.061,1296.287,31.06,1291.523,31Z" transform="translate(-1139.042 -0.988)"/><path class="e" d="M994,349.21l22,.115q-.008.4-.031.794a2.418,2.418,0,0,1-.844.849c-5.269-.293-10.541-.539-15.806-.907C997.533,349.936,995.77,349.5,994,349.21Z" transform="translate(-908.958 -319.333)"/><path class="h" d="M1021.938,476H1004.53v-.439H1022.1Z" transform="translate(-918.587 -434.873)"/><path class="i" d="M821.173,20.253q-.383,0-.763.02l.765-10.582Z" transform="translate(-750.219 -8.861)"/><path class="i" d="M1240.89,360.679l.844-.849v8.71l-.844.01Z" transform="translate(-1134.725 -329.044)"/><path class="f" d="M151.167,133.032v45.607l-.577.053a13.619,13.619,0,0,1-.312-2.053c-.019-13.324-.037-26.646.023-39.969a17.156,17.156,0,0,1,.826-3.669Z" transform="translate(-137.404 -121.621)"/><path class="c" d="M405.53,187.1q.05-23.275.1-46.552a.544.544,0,0,1,.95-.019v46.542Z" transform="translate(-370.835 -128.259)"/><path class="c" d="M1549.87,455.071c-1.977-.053-8.12-.053-8.12-.053l1.695-3.178,7.414.847Z" transform="translate(-1409.844 -413.182)"/><path class="c" d="M1860.355,472.92l-1.695-1.27,1.271,1.694Z" transform="translate(-1699.641 -431.298)"/><path class="c" d="M1884.294,178.632a10.181,10.181,0,0,1-.166,8.828c-1.8,3.945,5.613-3.468,5.613-3.468L1887.624,177Z" transform="translate(-1722.673 -161.857)"/><path class="c" d="M1903.75,510a21.3,21.3,0,0,1,2.236,1.988c.394.456-2.716-.582-2.716-.582Z" transform="translate(-1740.434 -466.367)"/><rect class="c" width="14.695" height="8.253" transform="translate(118.72 62.965)"/><path class="a" d="M843.568.087a1.05,1.05,0,0,0-.83,0c-1.7.606-3.466.275-5.2.3-14.117.2-28.245-.334-42.36.28-1.984,3.452-1.158,7.1-.73,10.714.38,6.16,1.067,12.328-.379,18.451a.537.537,0,0,0-.6.11,5.135,5.135,0,0,0-.865,1.324c-.385,3.63-1.323,6.8.752,10.241.224.171.55.471.829.456,1.253,1.394.54,3.337.6,4.877.286,7.871-.409,15.765.39,23.633,4.163.394,8.465,1.017,12.607.043.779-8.016-.037-16.291.257-24.312.047-1.312-.856-2.928.811-3.942l23.3-.3q.072-5.6.144-11.208a.746.746,0,0,0-.359-1.112,1.036,1.036,0,0,0-1.071.657,2.07,2.07,0,0,0-.006,1.332,19.581,19.581,0,0,1,.067,2.006,6.337,6.337,0,0,0-.524-2.55,4.57,4.57,0,0,0-3.667-1.5h-8.979c-.721.012-1.443.015-2.163,0h-6.749V28.548h-.008c-.171-2.718-.086-5.44-.06-8.162V17.75c0-.234,0-.469-.009-.7s0-.465.009-.684V13.628H819.8q1.369-.008,2.747,0H828.8v.051c2.47.02,4.941.027,7.411-.026,2.315-.05,4.706.238,6.732-1.3l.8-11.527c.1,0,.177-.107.246-.32C844.054.316,843.913.173,843.568.087ZM830.905,34.994a18.351,18.351,0,0,0,.189,3.687,11.587,11.587,0,0,1-.193-3.692Z" transform="translate(-724.294 -0.002)"/><rect class="c" width="15.127" height="12.359" transform="translate(54.775 29.602)"/><path class="a" d="M804.253.81l-.787.208.574.543v9.693l-.619.559.684.492h.619v.633l.109.111a1.736,1.736,0,0,0,.481-1.353c.3-3.37-.588-6.79.492-10.126,15.344,0,30.686.02,46.029-.036A34.587,34.587,0,0,0,856.76.826Z" transform="translate(-734.683 -0.741)"/><path class="c" d="M655.49,12.6l-15.26-.012V1.13h15.26Z" transform="translate(-585.455 -1.033)"/><rect class="c" width="18.747" height="12.359" transform="translate(106.804 29.602)"/><rect class="c" width="15.799" height="20.012" transform="translate(117.272 0.085)"/><rect class="a" width="18.747" height="12.359" transform="translate(88.057 29.602)"/><path class="a" d="M961.141,486.154l-2.461-.035V478.13h2.538Z" transform="translate(-876.659 -437.223)"/><path class="c" d="M199.383,20.463c.007-1.369-.664-2.909.567-4.141v-.77h.6l.171-.216c1.4-1.149,3.047-.46,4.576-.561,5.006-.33,10.053.533,15.036-.5.765-3.337.257-6.514-.4-9.9-18.117-.257-36.234-.293-54.352.017-1.072,3.251-.447,6.555-.351,9.847,1.369,1.4,3.154,1.271,4.882,1.29,1.274.014,2.548.017,3.822.018h2.085c1.493,0,2.985-.005,4.478,0h4.856v3.787c.051.8.013,1.6,0,2.4v3.08h0c.013,10.659-.01,21.317.027,31.976.007,2.005-.369,4.137,1.221,5.831h12.356c.72-1.389.367-2.883.37-4.324C199.361,45.693,199.323,33.08,199.383,20.463Z" transform="translate(-150.851 -3.819)"/><rect class="a" width="49.013" height="14.231" transform="translate(0 57.071)"/><rect class="a" width="58.732" height="15.996" transform="translate(15.996) rotate(90)"/><rect class="a" width="14.611" height="33.842" transform="translate(69.947 37.492)"/><rect class="c" width="20.971" height="7.894" transform="translate(49.099 3.84)"/><path class="a" d="M1043.458,83.309H1012.84V76.16h30.5Z" transform="translate(-926.186 -69.644)"/></svg>