<!-- <svg xmlns="http://www.w3.org/2000/svg" xmlns:xlink="http://www.w3.org/1999/xlink" width="296.329" height="395.431" viewBox="0 0 296.329 395.431"><defs><style>.a{fill:rgba(0,219,255,0.67);}.b{filter:url(#a);}</style><filter id="a" x="0" y="0" width="296.329" height="395.431" filterUnits="userSpaceOnUse"><feOffset input="SourceAlpha"/><feGaussianBlur stdDeviation="12.5" result="b"/><feFlood flood-color="#00fff7" flood-opacity="0.231"/><feComposite operator="in" in2="b"/><feComposite in="SourceGraphic"/></filter></defs><g class="b" transform="matrix(1, 0, 0, 1, 0, 0)"><path class="a" d="M217.383,320.431H0l1.032-17.636c2.015-34.434,29.146-60.713,60.193-60.713H88.051V232.9c-25.1-9.247-44.326-33.4-48.74-63.3-5.182-1.752-14.817-6.891-17.217-21.214l-2.626-18.035s-2.039-23.868,17.74-17.8l.123.585-.013-.551-.11-.034.11.034-.079-3.432c0-.1,0-.2-.006-.292-.2-.014-.329-.055-.348-.134C24.322,57.74,50,43.492,50,43.492c-2.533-7.8,1.6-15.989,1.6-15.989,20.958,5.429,27.5.639,27.5.639C73.556,14.262,85.813,0,85.813,0A56.691,56.691,0,0,0,120.99,19.507c76.462,15.324,70.45,71.014,64.33,92.722,18.472-4.645,16.515,18.15,16.515,18.15L199.2,148.4c-2.364,14.03-11.709,19.243-16.979,21.092-4.477,30.584-24.443,55.169-50.356,63.975v8.613H160.1c31.047,0,58.177,26.279,60.193,60.713l1.032,17.636Zm-.807-1.038-.154-15.354c-1.943-33.145-28.091-58.44-58.013-58.44H132.182v73.794ZM5.1,304.039l-.96,15.354H128.664V260.676a21.906,21.906,0,0,1-37.1.506v57.969H88.051V245.6H63.11C33.187,245.6,7.039,270.894,5.1,304.039Zm105.021-36.374a18.539,18.539,0,0,0,18.547-18.532V234.466a65.429,65.429,0,0,1-37.1-.378v15.045A18.54,18.54,0,0,0,110.117,267.665Zm.481-35.5c34.058,0,62.775-28.438,67.481-65.912l-.032,0,.032,0a86.78,86.78,0,0,0,.652-8.844l.924-40.655q-.121-1.383-.262-2.752c-6.806,2.078-3.552,1.084,0,0a234.981,234.981,0,0,0-4.357-26.382c-22.125-2.787-38.7-23.984-38.7-23.984-35.852,24.64-78.028.959-78.028.959-8.288,6.87-16.586,42.554-16.938,44.08q0,.812.023,1.628l.081,3.556c3.715,1.14,7.442,2.284,0,0l.989,43.549a86.866,86.866,0,0,0,.652,8.841l.036,0-.036,0C47.82,203.731,76.539,232.168,110.6,232.168ZM23.56,127.89s2.251,22.542,3.228,24.62c0,0,4.449,9.833,12,12.854q-.333-3.363-.414-6.806l-.96-41.721a18.446,18.446,0,0,0-4.045-.472C28.99,116.366,23.228,118.19,23.56,127.89Zm159.578,30.668q-.078,3.38-.4,6.683c7.4-3.158,11.745-12.718,11.745-12.718.982-2.077,3.243-24.6,3.243-24.6.45-13.067-10.222-11.832-13.626-11.109ZM97.265,318.491l.047-.176h-1.8s6.6-25.853,9.241-35.055l-3.744-3.744,8.941-8.14,9.8,8.14-4.311,4.311,9.242,34.488-1.984-.031.05.206ZM61.673,303.35,52.566,284.4a1.918,1.918,0,0,1-.073-2.038l7.394-12.779a1.928,1.928,0,0,1,3.342,1.924l-6.872,11.876,8.795,18.3a1.928,1.928,0,0,1-3.479,1.664Zm94.217.824a1.919,1.919,0,0,1-.9-2.56l8.748-18.247-6.835-11.84a1.919,1.919,0,1,1,3.324-1.919l7.355,12.74a1.916,1.916,0,0,1-.073,2.031l-9.058,18.893a1.918,1.918,0,0,1-2.561.9Zm18.51-137.7h0Zm0,0h0Zm.019,0h0Zm0,0h0Zm.008,0h0Zm0,0h0Zm.006,0h0Zm.008,0h0Zm-127.663,0h0Zm127.687,0h0Zm-127.688,0h0Zm-.018,0h0Zm0,0h0Zm-.008,0h0Zm127.717,0h0Zm3.5-.207-3.5.207Zm-131.223.207h0Zm0,0h0Zm-.009,0h0Zm-.024,0h0Zm0,0h0Zm-3.2-.19,3.2.19Zm0,0h0Zm-.3-.018.3.018Zm134.832,0-.073,0Zm-134.893,0,.061,0Z" transform="translate(37.5 37.5)"/></g></svg> -->
<svg version="1.1" id="Layer_1" xmlns="http://www.w3.org/2000/svg" xmlns:xlink="http://www.w3.org/1999/xlink" x="0px" y="0px"
	 viewBox="0 0 221.3 320.4" style="enable-background:new 0 0 221.3 320.4; fill:rgba(0,219,255, 1)" xml:space="preserve">
<g transform="matrix(1, 0, 0, 1, 0, 0)">
	<path d="M217.4,320.4H0l1-17.6c2-34.4,29.1-60.7,60.2-60.7h26.8v-9.2c-25.1-9.2-44.3-33.4-48.7-63.3c-5.2-1.8-14.8-6.9-17.2-21.2
		l-2.6-18c0,0-2-23.9,17.7-17.8l0.1,0.6l0-0.6l-0.1,0l0.1,0l-0.1-3.4c0-0.1,0-0.2,0-0.3c-0.2,0-0.3-0.1-0.3-0.1
		C24.3,57.7,50,43.5,50,43.5c-2.5-7.8,1.6-16,1.6-16c21,5.4,27.5,0.6,27.5,0.6C73.6,14.3,85.8,0,85.8,0
		c8.9,10.6,21.5,17.5,35.2,19.5c76.5,15.3,70.5,71,64.3,92.7c18.5-4.6,16.5,18.1,16.5,18.1l-2.6,18c-2.4,14-11.7,19.2-17,21.1
		c-4.5,30.6-24.4,55.2-50.4,64v8.6h28.2c31,0,58.2,26.3,60.2,60.7l1,17.6L217.4,320.4z M216.6,319.4l-0.2-15.4
		c-1.9-33.1-28.1-58.4-58-58.4h-26.2v73.8H216.6z M5.1,304l-1,15.4h124.5v-58.7c-6.3,10.3-19.8,13.6-30.1,7.3c-2.8-1.7-5.2-4-7-6.8
		v58h-3.5v-73.6H63.1C33.2,245.6,7,270.9,5.1,304z M110.1,267.7c10.2,0,18.5-8.3,18.5-18.5c0,0,0,0,0,0v-14.7
		c-12.1,3.5-25,3.3-37.1-0.4v15C91.6,259.4,99.9,267.7,110.1,267.7C110.1,267.7,110.1,267.7,110.1,267.7L110.1,267.7z M110.6,232.2
		c34.1,0,62.8-28.4,67.5-65.9h0h0c0.4-2.9,0.6-5.9,0.7-8.8l0.9-40.7c-0.1-0.9-0.2-1.8-0.3-2.8c-6.8,2.1-3.6,1.1,0,0
		c-1-8.9-2.4-17.7-4.4-26.4c-22.1-2.8-38.7-24-38.7-24c-35.9,24.6-78,1-78,1c-8.3,6.9-16.6,42.6-16.9,44.1c0,0.5,0,1.1,0,1.6
		l0.1,3.6c3.7,1.1,7.4,2.3,0,0l1,43.5c0.1,3,0.3,5.9,0.7,8.8h0h0C47.8,203.7,76.5,232.2,110.6,232.2L110.6,232.2z M23.6,127.9
		c0,0,2.3,22.5,3.2,24.6c0,0,4.4,9.8,12,12.9c-0.2-2.2-0.4-4.5-0.4-6.8l-1-41.7c-1.3-0.3-2.7-0.5-4-0.5
		C29,116.4,23.2,118.2,23.6,127.9z M183.1,158.6c-0.1,2.3-0.2,4.5-0.4,6.7c7.4-3.2,11.7-12.7,11.7-12.7c1-2.1,3.2-24.6,3.2-24.6
		c0.4-13.1-10.2-11.8-13.6-11.1L183.1,158.6z M97.3,318.5l0-0.2h-1.8c0,0,6.6-25.9,9.2-35.1l-3.7-3.7l8.9-8.1l9.8,8.1l-4.3,4.3
		l9.2,34.5l-2,0l0.1,0.2L97.3,318.5z M61.7,303.4l-9.1-19c-0.4-0.6-0.4-1.4-0.1-2l7.4-12.8c0.5-0.9,1.7-1.2,2.6-0.7
		c0.9,0.5,1.2,1.7,0.7,2.6l-6.9,11.9l8.8,18.3c0.5,1,0.1,2.1-0.9,2.6C63.3,304.7,62.1,304.3,61.7,303.4L61.7,303.4L61.7,303.4z
		 M155.9,304.2c-1-0.5-1.4-1.6-0.9-2.6l8.7-18.2l-6.8-11.8c-0.5-0.9-0.2-2.1,0.7-2.6c0.9-0.5,2.1-0.2,2.6,0.7l0,0l7.4,12.7
		c0.4,0.6,0.3,1.4-0.1,2l-9.1,18.9C158,304.2,156.8,304.6,155.9,304.2C155.9,304.2,155.9,304.2,155.9,304.2L155.9,304.2z
		 M174.4,166.5L174.4,166.5z M174.4,166.5L174.4,166.5z M174.4,166.5L174.4,166.5z M174.4,166.5L174.4,166.5z M174.4,166.5
		L174.4,166.5z M174.4,166.5L174.4,166.5z M174.4,166.5L174.4,166.5z M174.4,166.5L174.4,166.5z M46.8,166.5L46.8,166.5z
		 M174.5,166.5L174.5,166.5z M46.8,166.5L46.8,166.5z M46.8,166.5L46.8,166.5z M46.8,166.5L46.8,166.5z M46.8,166.5L46.8,166.5z
		 M174.5,166.5L174.5,166.5z M178,166.3l-3.5,0.2L178,166.3z M46.7,166.5L46.7,166.5z M46.7,166.5L46.7,166.5z M46.7,166.5
		L46.7,166.5z M46.7,166.5L46.7,166.5z M46.7,166.5L46.7,166.5z M43.5,166.3l3.2,0.2L43.5,166.3z M43.5,166.3L43.5,166.3z
		 M43.2,166.3l0.3,0L43.2,166.3z M178,166.3L178,166.3L178,166.3z M43.2,166.3L43.2,166.3L43.2,166.3z"/>
</g>
</svg>