<svg xmlns="http://www.w3.org/2000/svg" xmlns:xlink="http://www.w3.org/1999/xlink" width="692.268" height="638.241" viewBox="0 0 692.268 638.241"><defs><style>.a{opacity:0.77;}.b{opacity:0.6;}.c,.d,.f{fill:none;}.c{stroke:#d600ff;}.c,.f{stroke-width:2px;}.d{stroke:#fff;}.e{opacity:0.4;}.f{stroke:#1ff2fd;}.g{filter:url(#ey);}.h{filter:url(#ew);}.i{filter:url(#eu);}.j{filter:url(#es);}.k{filter:url(#eq);}.l{filter:url(#eo);}.m{filter:url(#em);}.n{filter:url(#ek);}.o{filter:url(#ei);}.p{filter:url(#eg);}.q{filter:url(#ee);}.r{filter:url(#ec);}.s{filter:url(#ea);}.t{filter:url(#dy);}.u{filter:url(#dw);}.v{filter:url(#du);}.w{filter:url(#ds);}.x{filter:url(#dq);}.y{filter:url(#do);}.z{filter:url(#dm);}.aa{filter:url(#dk);}.ab{filter:url(#di);}.ac{filter:url(#dg);}.ad{filter:url(#de);}.ae{filter:url(#dc);}.af{filter:url(#da);}.ag{filter:url(#cy);}.ah{filter:url(#cw);}.ai{filter:url(#cu);}.aj{filter:url(#cs);}.ak{filter:url(#cq);}.al{filter:url(#co);}.am{filter:url(#cm);}.an{filter:url(#ck);}.ao{filter:url(#ci);}.ap{filter:url(#cg);}.aq{filter:url(#ce);}.ar{filter:url(#cc);}.as{filter:url(#ca);}.at{filter:url(#by);}.au{filter:url(#bw);}.av{filter:url(#bu);}.aw{filter:url(#bs);}.ax{filter:url(#bq);}.ay{filter:url(#bo);}.az{filter:url(#bm);}.ba{filter:url(#bk);}.bb{filter:url(#bi);}.bc{filter:url(#bg);}.bd{filter:url(#be);}.be{filter:url(#bc);}.bf{filter:url(#ba);}.bg{filter:url(#ay);}.bh{filter:url(#aw);}.bi{filter:url(#au);}.bj{filter:url(#as);}.bk{filter:url(#aq);}.bl{filter:url(#ao);}.bm{filter:url(#am);}.bn{filter:url(#ak);}.bo{filter:url(#ai);}.bp{filter:url(#ag);}.bq{filter:url(#ae);}.br{filter:url(#ac);}.bs{filter:url(#aa);}.bt{filter:url(#y);}.bu{filter:url(#w);}.bv{filter:url(#u);}.bw{filter:url(#s);}.bx{filter:url(#q);}.by{filter:url(#o);}.bz{filter:url(#m);}.ca{filter:url(#k);}.cb{filter:url(#i);}.cc{filter:url(#g);}.cd{filter:url(#e);}.ce{filter:url(#c);}.cf{filter:url(#a);}</style><filter id="a" x="0" y="0.214" width="61" height="638.027" filterUnits="userSpaceOnUse"><feOffset input="SourceAlpha"/><feGaussianBlur stdDeviation="10" result="b"/><feFlood flood-color="#d600ff"/><feComposite operator="in" in2="b"/><feComposite in="SourceGraphic"/></filter><filter id="c" x="33.104" y="0.214" width="61" height="638.027" filterUnits="userSpaceOnUse"><feOffset input="SourceAlpha"/><feGaussianBlur stdDeviation="10" result="d"/><feFlood flood-color="#d600ff"/><feComposite operator="in" in2="d"/><feComposite in="SourceGraphic"/></filter><filter id="e" x="66.207" y="0.214" width="61" height="638.027" filterUnits="userSpaceOnUse"><feOffset input="SourceAlpha"/><feGaussianBlur stdDeviation="10" result="f"/><feFlood flood-color="#d600ff"/><feComposite operator="in" in2="f"/><feComposite in="SourceGraphic"/></filter><filter id="g" x="99.311" y="0.214" width="61" height="638.027" filterUnits="userSpaceOnUse"><feOffset input="SourceAlpha"/><feGaussianBlur stdDeviation="10" result="h"/><feFlood flood-color="#d600ff"/><feComposite operator="in" in2="h"/><feComposite in="SourceGraphic"/></filter><filter id="i" x="132.414" y="0.214" width="61" height="638.027" filterUnits="userSpaceOnUse"><feOffset input="SourceAlpha"/><feGaussianBlur stdDeviation="10" result="j"/><feFlood flood-color="#d600ff"/><feComposite operator="in" in2="j"/><feComposite in="SourceGraphic"/></filter><filter id="k" x="165.517" y="0.214" width="61" height="638.027" filterUnits="userSpaceOnUse"><feOffset input="SourceAlpha"/><feGaussianBlur stdDeviation="10" result="l"/><feFlood flood-color="#d600ff"/><feComposite operator="in" in2="l"/><feComposite in="SourceGraphic"/></filter><filter id="m" x="198.62" y="0.214" width="61" height="638.027" filterUnits="userSpaceOnUse"><feOffset input="SourceAlpha"/><feGaussianBlur stdDeviation="10" result="n"/><feFlood flood-color="#d600ff"/><feComposite operator="in" in2="n"/><feComposite in="SourceGraphic"/></filter><filter id="o" x="231.724" y="0.214" width="61" height="638.027" filterUnits="userSpaceOnUse"><feOffset input="SourceAlpha"/><feGaussianBlur stdDeviation="10" result="p"/><feFlood flood-color="#d600ff"/><feComposite operator="in" in2="p"/><feComposite in="SourceGraphic"/></filter><filter id="q" x="0.5" y="0" width="691.767" height="61" filterUnits="userSpaceOnUse"><feOffset input="SourceAlpha"/><feGaussianBlur stdDeviation="10" result="r"/><feFlood flood-color="#d600ff"/><feComposite operator="in" in2="r"/><feComposite in="SourceGraphic"/></filter><filter id="s" x="0.5" y="33.103" width="691.767" height="61" filterUnits="userSpaceOnUse"><feOffset input="SourceAlpha"/><feGaussianBlur stdDeviation="10" result="t"/><feFlood flood-color="#d600ff"/><feComposite operator="in" in2="t"/><feComposite in="SourceGraphic"/></filter><filter id="u" x="0.5" y="66.207" width="691.767" height="61" filterUnits="userSpaceOnUse"><feOffset input="SourceAlpha"/><feGaussianBlur stdDeviation="10" result="v"/><feFlood flood-color="#d600ff"/><feComposite operator="in" in2="v"/><feComposite in="SourceGraphic"/></filter><filter id="w" x="0.5" y="99.31" width="691.767" height="61" filterUnits="userSpaceOnUse"><feOffset input="SourceAlpha"/><feGaussianBlur stdDeviation="10" result="x"/><feFlood flood-color="#d600ff"/><feComposite operator="in" in2="x"/><feComposite in="SourceGraphic"/></filter><filter id="y" x="0.5" y="128.38" width="691.767" height="61" filterUnits="userSpaceOnUse"><feOffset input="SourceAlpha"/><feGaussianBlur stdDeviation="10" result="z"/><feFlood flood-color="#d600ff"/><feComposite operator="in" in2="z"/><feComposite in="SourceGraphic"/></filter><filter id="aa" x="0.5" y="160.477" width="691.767" height="61" filterUnits="userSpaceOnUse"><feOffset input="SourceAlpha"/><feGaussianBlur stdDeviation="10" result="ab"/><feFlood flood-color="#d600ff"/><feComposite operator="in" in2="ab"/><feComposite in="SourceGraphic"/></filter><filter id="ac" x="0.5" y="192.574" width="691.767" height="61" filterUnits="userSpaceOnUse"><feOffset input="SourceAlpha"/><feGaussianBlur stdDeviation="10" result="ad"/><feFlood flood-color="#d600ff"/><feComposite operator="in" in2="ad"/><feComposite in="SourceGraphic"/></filter><filter id="ae" x="0.5" y="224.672" width="691.767" height="61" filterUnits="userSpaceOnUse"><feOffset input="SourceAlpha"/><feGaussianBlur stdDeviation="10" result="af"/><feFlood flood-color="#d600ff"/><feComposite operator="in" in2="af"/><feComposite in="SourceGraphic"/></filter><filter id="ag" x="0.5" y="256.769" width="691.767" height="61" filterUnits="userSpaceOnUse"><feOffset input="SourceAlpha"/><feGaussianBlur stdDeviation="10" result="ah"/><feFlood flood-color="#d600ff"/><feComposite operator="in" in2="ah"/><feComposite in="SourceGraphic"/></filter><filter id="ai" x="0.5" y="288.866" width="691.767" height="61" filterUnits="userSpaceOnUse"><feOffset input="SourceAlpha"/><feGaussianBlur stdDeviation="10" result="aj"/><feFlood flood-color="#d600ff"/><feComposite operator="in" in2="aj"/><feComposite in="SourceGraphic"/></filter><filter id="ak" x="0.5" y="320.963" width="691.767" height="61" filterUnits="userSpaceOnUse"><feOffset input="SourceAlpha"/><feGaussianBlur stdDeviation="10" result="al"/><feFlood flood-color="#d600ff"/><feComposite operator="in" in2="al"/><feComposite in="SourceGraphic"/></filter><filter id="am" x="0.5" y="353.061" width="691.767" height="61" filterUnits="userSpaceOnUse"><feOffset input="SourceAlpha"/><feGaussianBlur stdDeviation="10" result="an"/><feFlood flood-color="#d600ff"/><feComposite operator="in" in2="an"/><feComposite in="SourceGraphic"/></filter><filter id="ao" x="0.5" y="385.158" width="691.767" height="61" filterUnits="userSpaceOnUse"><feOffset input="SourceAlpha"/><feGaussianBlur stdDeviation="10" result="ap"/><feFlood flood-color="#d600ff"/><feComposite operator="in" in2="ap"/><feComposite in="SourceGraphic"/></filter><filter id="aq" x="0.5" y="417.255" width="691.767" height="61" filterUnits="userSpaceOnUse"><feOffset input="SourceAlpha"/><feGaussianBlur stdDeviation="10" result="ar"/><feFlood flood-color="#d600ff"/><feComposite operator="in" in2="ar"/><feComposite in="SourceGraphic"/></filter><filter id="as" x="0.5" y="449.352" width="691.767" height="61" filterUnits="userSpaceOnUse"><feOffset input="SourceAlpha"/><feGaussianBlur stdDeviation="10" result="at"/><feFlood flood-color="#d600ff"/><feComposite operator="in" in2="at"/><feComposite in="SourceGraphic"/></filter><filter id="au" x="0.5" y="478.431" width="691.767" height="61" filterUnits="userSpaceOnUse"><feOffset input="SourceAlpha"/><feGaussianBlur stdDeviation="10" result="av"/><feFlood flood-color="#d600ff"/><feComposite operator="in" in2="av"/><feComposite in="SourceGraphic"/></filter><filter id="aw" x="0.5" y="511.534" width="691.767" height="61" filterUnits="userSpaceOnUse"><feOffset input="SourceAlpha"/><feGaussianBlur stdDeviation="10" result="ax"/><feFlood flood-color="#d600ff"/><feComposite operator="in" in2="ax"/><feComposite in="SourceGraphic"/></filter><filter id="ay" x="0.5" y="544.638" width="691.767" height="61" filterUnits="userSpaceOnUse"><feOffset input="SourceAlpha"/><feGaussianBlur stdDeviation="10" result="az"/><feFlood flood-color="#d600ff"/><feComposite operator="in" in2="az"/><feComposite in="SourceGraphic"/></filter><filter id="ba" x="15.5" y="592.741" width="661.767" height="31" filterUnits="userSpaceOnUse"><feOffset input="SourceAlpha"/><feGaussianBlur stdDeviation="5" result="bb"/><feFlood flood-color="#d600ff"/><feComposite operator="in" in2="bb"/><feComposite in="SourceGraphic"/></filter><filter id="bc" x="264.827" y="0.214" width="61" height="638.027" filterUnits="userSpaceOnUse"><feOffset input="SourceAlpha"/><feGaussianBlur stdDeviation="10" result="bd"/><feFlood flood-color="#d600ff"/><feComposite operator="in" in2="bd"/><feComposite in="SourceGraphic"/></filter><filter id="be" x="297.931" y="0.214" width="61" height="638.027" filterUnits="userSpaceOnUse"><feOffset input="SourceAlpha"/><feGaussianBlur stdDeviation="10" result="bf"/><feFlood flood-color="#d600ff"/><feComposite operator="in" in2="bf"/><feComposite in="SourceGraphic"/></filter><filter id="bg" x="331.034" y="0.214" width="61" height="638.027" filterUnits="userSpaceOnUse"><feOffset input="SourceAlpha"/><feGaussianBlur stdDeviation="10" result="bh"/><feFlood flood-color="#d600ff"/><feComposite operator="in" in2="bh"/><feComposite in="SourceGraphic"/></filter><filter id="bi" x="364.137" y="0.214" width="61" height="638.027" filterUnits="userSpaceOnUse"><feOffset input="SourceAlpha"/><feGaussianBlur stdDeviation="10" result="bj"/><feFlood flood-color="#d600ff"/><feComposite operator="in" in2="bj"/><feComposite in="SourceGraphic"/></filter><filter id="bk" x="397.24" y="0.214" width="61" height="638.027" filterUnits="userSpaceOnUse"><feOffset input="SourceAlpha"/><feGaussianBlur stdDeviation="10" result="bl"/><feFlood flood-color="#d600ff"/><feComposite operator="in" in2="bl"/><feComposite in="SourceGraphic"/></filter><filter id="bm" x="430.344" y="0.214" width="61" height="638.027" filterUnits="userSpaceOnUse"><feOffset input="SourceAlpha"/><feGaussianBlur stdDeviation="10" result="bn"/><feFlood flood-color="#d600ff"/><feComposite operator="in" in2="bn"/><feComposite in="SourceGraphic"/></filter><filter id="bo" x="463.447" y="0.214" width="61" height="638.027" filterUnits="userSpaceOnUse"><feOffset input="SourceAlpha"/><feGaussianBlur stdDeviation="10" result="bp"/><feFlood flood-color="#d600ff"/><feComposite operator="in" in2="bp"/><feComposite in="SourceGraphic"/></filter><filter id="bq" x="496.551" y="0.214" width="61" height="638.027" filterUnits="userSpaceOnUse"><feOffset input="SourceAlpha"/><feGaussianBlur stdDeviation="10" result="br"/><feFlood flood-color="#d600ff"/><feComposite operator="in" in2="br"/><feComposite in="SourceGraphic"/></filter><filter id="bs" x="529.653" y="0.214" width="61" height="638.027" filterUnits="userSpaceOnUse"><feOffset input="SourceAlpha"/><feGaussianBlur stdDeviation="10" result="bt"/><feFlood flood-color="#d600ff"/><feComposite operator="in" in2="bt"/><feComposite in="SourceGraphic"/></filter><filter id="bu" x="562.757" y="0.214" width="61" height="638.027" filterUnits="userSpaceOnUse"><feOffset input="SourceAlpha"/><feGaussianBlur stdDeviation="10" result="bv"/><feFlood flood-color="#d600ff"/><feComposite operator="in" in2="bv"/><feComposite in="SourceGraphic"/></filter><filter id="bw" x="595.86" y="0.214" width="61" height="638.027" filterUnits="userSpaceOnUse"><feOffset input="SourceAlpha"/><feGaussianBlur stdDeviation="10" result="bx"/><feFlood flood-color="#d600ff"/><feComposite operator="in" in2="bx"/><feComposite in="SourceGraphic"/></filter><filter id="by" x="628.964" y="0.214" width="61" height="638.027" filterUnits="userSpaceOnUse"><feOffset input="SourceAlpha"/><feGaussianBlur stdDeviation="10" result="bz"/><feFlood flood-color="#d600ff"/><feComposite operator="in" in2="bz"/><feComposite in="SourceGraphic"/></filter><filter id="ca" x="21.5" y="19.214" width="32" height="608.027" filterUnits="userSpaceOnUse"><feOffset input="SourceAlpha"/><feGaussianBlur stdDeviation="5" result="cb"/><feFlood flood-color="#1ff2fd"/><feComposite operator="in" in2="cb"/><feComposite in="SourceGraphic"/></filter><filter id="cc" x="54.604" y="19.214" width="32" height="608.027" filterUnits="userSpaceOnUse"><feOffset input="SourceAlpha"/><feGaussianBlur stdDeviation="5" result="cd"/><feFlood flood-color="#1ff2fd"/><feComposite operator="in" in2="cd"/><feComposite in="SourceGraphic"/></filter><filter id="ce" x="87.707" y="19.214" width="32" height="608.027" filterUnits="userSpaceOnUse"><feOffset input="SourceAlpha"/><feGaussianBlur stdDeviation="5" result="cf"/><feFlood flood-color="#1ff2fd"/><feComposite operator="in" in2="cf"/><feComposite in="SourceGraphic"/></filter><filter id="cg" x="120.811" y="19.214" width="32" height="608.027" filterUnits="userSpaceOnUse"><feOffset input="SourceAlpha"/><feGaussianBlur stdDeviation="5" result="ch"/><feFlood flood-color="#1ff2fd"/><feComposite operator="in" in2="ch"/><feComposite in="SourceGraphic"/></filter><filter id="ci" x="153.914" y="19.214" width="32" height="608.027" filterUnits="userSpaceOnUse"><feOffset input="SourceAlpha"/><feGaussianBlur stdDeviation="5" result="cj"/><feFlood flood-color="#1ff2fd"/><feComposite operator="in" in2="cj"/><feComposite in="SourceGraphic"/></filter><filter id="ck" x="187.017" y="19.214" width="32" height="608.027" filterUnits="userSpaceOnUse"><feOffset input="SourceAlpha"/><feGaussianBlur stdDeviation="5" result="cl"/><feFlood flood-color="#1ff2fd"/><feComposite operator="in" in2="cl"/><feComposite in="SourceGraphic"/></filter><filter id="cm" x="220.12" y="19.214" width="32" height="608.027" filterUnits="userSpaceOnUse"><feOffset input="SourceAlpha"/><feGaussianBlur stdDeviation="5" result="cn"/><feFlood flood-color="#1ff2fd"/><feComposite operator="in" in2="cn"/><feComposite in="SourceGraphic"/></filter><filter id="co" x="253.224" y="19.214" width="32" height="608.027" filterUnits="userSpaceOnUse"><feOffset input="SourceAlpha"/><feGaussianBlur stdDeviation="5" result="cp"/><feFlood flood-color="#1ff2fd"/><feComposite operator="in" in2="cp"/><feComposite in="SourceGraphic"/></filter><filter id="cq" x="22.5" y="18.5" width="661.767" height="32" filterUnits="userSpaceOnUse"><feOffset input="SourceAlpha"/><feGaussianBlur stdDeviation="5" result="cr"/><feFlood flood-color="#1ff2fd"/><feComposite operator="in" in2="cr"/><feComposite in="SourceGraphic"/></filter><filter id="cs" x="22.5" y="51.603" width="661.767" height="32" filterUnits="userSpaceOnUse"><feOffset input="SourceAlpha"/><feGaussianBlur stdDeviation="5" result="ct"/><feFlood flood-color="#1ff2fd"/><feComposite operator="in" in2="ct"/><feComposite in="SourceGraphic"/></filter><filter id="cu" x="22.5" y="84.707" width="661.767" height="32" filterUnits="userSpaceOnUse"><feOffset input="SourceAlpha"/><feGaussianBlur stdDeviation="5" result="cv"/><feFlood flood-color="#1ff2fd"/><feComposite operator="in" in2="cv"/><feComposite in="SourceGraphic"/></filter><filter id="cw" x="22.5" y="117.81" width="661.767" height="32" filterUnits="userSpaceOnUse"><feOffset input="SourceAlpha"/><feGaussianBlur stdDeviation="5" result="cx"/><feFlood flood-color="#1ff2fd"/><feComposite operator="in" in2="cx"/><feComposite in="SourceGraphic"/></filter><filter id="cy" x="22.5" y="146.88" width="661.767" height="32" filterUnits="userSpaceOnUse"><feOffset input="SourceAlpha"/><feGaussianBlur stdDeviation="5" result="cz"/><feFlood flood-color="#1ff2fd"/><feComposite operator="in" in2="cz"/><feComposite in="SourceGraphic"/></filter><filter id="da" x="22.5" y="178.977" width="661.767" height="32" filterUnits="userSpaceOnUse"><feOffset input="SourceAlpha"/><feGaussianBlur stdDeviation="5" result="db"/><feFlood flood-color="#1ff2fd"/><feComposite operator="in" in2="db"/><feComposite in="SourceGraphic"/></filter><filter id="dc" x="22.5" y="211.074" width="661.767" height="32" filterUnits="userSpaceOnUse"><feOffset input="SourceAlpha"/><feGaussianBlur stdDeviation="5" result="dd"/><feFlood flood-color="#1ff2fd"/><feComposite operator="in" in2="dd"/><feComposite in="SourceGraphic"/></filter><filter id="de" x="22.5" y="243.172" width="661.767" height="32" filterUnits="userSpaceOnUse"><feOffset input="SourceAlpha"/><feGaussianBlur stdDeviation="5" result="df"/><feFlood flood-color="#1ff2fd"/><feComposite operator="in" in2="df"/><feComposite in="SourceGraphic"/></filter><filter id="dg" x="22.5" y="275.269" width="661.767" height="32" filterUnits="userSpaceOnUse"><feOffset input="SourceAlpha"/><feGaussianBlur stdDeviation="5" result="dh"/><feFlood flood-color="#1ff2fd"/><feComposite operator="in" in2="dh"/><feComposite in="SourceGraphic"/></filter><filter id="di" x="22.5" y="307.366" width="661.767" height="32" filterUnits="userSpaceOnUse"><feOffset input="SourceAlpha"/><feGaussianBlur stdDeviation="5" result="dj"/><feFlood flood-color="#1ff2fd"/><feComposite operator="in" in2="dj"/><feComposite in="SourceGraphic"/></filter><filter id="dk" x="22.5" y="339.463" width="661.767" height="32" filterUnits="userSpaceOnUse"><feOffset input="SourceAlpha"/><feGaussianBlur stdDeviation="5" result="dl"/><feFlood flood-color="#1ff2fd"/><feComposite operator="in" in2="dl"/><feComposite in="SourceGraphic"/></filter><filter id="dm" x="22.5" y="371.561" width="661.767" height="32" filterUnits="userSpaceOnUse"><feOffset input="SourceAlpha"/><feGaussianBlur stdDeviation="5" result="dn"/><feFlood flood-color="#1ff2fd"/><feComposite operator="in" in2="dn"/><feComposite in="SourceGraphic"/></filter><filter id="do" x="22.5" y="403.658" width="661.767" height="32" filterUnits="userSpaceOnUse"><feOffset input="SourceAlpha"/><feGaussianBlur stdDeviation="5" result="dp"/><feFlood flood-color="#1ff2fd"/><feComposite operator="in" in2="dp"/><feComposite in="SourceGraphic"/></filter><filter id="dq" x="22.5" y="435.755" width="661.767" height="32" filterUnits="userSpaceOnUse"><feOffset input="SourceAlpha"/><feGaussianBlur stdDeviation="5" result="dr"/><feFlood flood-color="#1ff2fd"/><feComposite operator="in" in2="dr"/><feComposite in="SourceGraphic"/></filter><filter id="ds" x="22.5" y="467.852" width="661.767" height="32" filterUnits="userSpaceOnUse"><feOffset input="SourceAlpha"/><feGaussianBlur stdDeviation="5" result="dt"/><feFlood flood-color="#1ff2fd"/><feComposite operator="in" in2="dt"/><feComposite in="SourceGraphic"/></filter><filter id="du" x="22.5" y="496.931" width="661.767" height="32" filterUnits="userSpaceOnUse"><feOffset input="SourceAlpha"/><feGaussianBlur stdDeviation="5" result="dv"/><feFlood flood-color="#1ff2fd"/><feComposite operator="in" in2="dv"/><feComposite in="SourceGraphic"/></filter><filter id="dw" x="22.5" y="530.034" width="661.767" height="32" filterUnits="userSpaceOnUse"><feOffset input="SourceAlpha"/><feGaussianBlur stdDeviation="5" result="dx"/><feFlood flood-color="#1ff2fd"/><feComposite operator="in" in2="dx"/><feComposite in="SourceGraphic"/></filter><filter id="dy" x="22.5" y="563.138" width="661.767" height="32" filterUnits="userSpaceOnUse"><feOffset input="SourceAlpha"/><feGaussianBlur stdDeviation="5" result="dz"/><feFlood flood-color="#1ff2fd"/><feComposite operator="in" in2="dz"/><feComposite in="SourceGraphic"/></filter><filter id="ea" x="22.5" y="596.241" width="661.767" height="32" filterUnits="userSpaceOnUse"><feOffset input="SourceAlpha"/><feGaussianBlur stdDeviation="5" result="eb"/><feFlood flood-color="#1ff2fd"/><feComposite operator="in" in2="eb"/><feComposite in="SourceGraphic"/></filter><filter id="ec" x="286.327" y="19.214" width="32" height="608.027" filterUnits="userSpaceOnUse"><feOffset input="SourceAlpha"/><feGaussianBlur stdDeviation="5" result="ed"/><feFlood flood-color="#1ff2fd"/><feComposite operator="in" in2="ed"/><feComposite in="SourceGraphic"/></filter><filter id="ee" x="319.431" y="19.214" width="32" height="608.027" filterUnits="userSpaceOnUse"><feOffset input="SourceAlpha"/><feGaussianBlur stdDeviation="5" result="ef"/><feFlood flood-color="#1ff2fd"/><feComposite operator="in" in2="ef"/><feComposite in="SourceGraphic"/></filter><filter id="eg" x="352.534" y="19.214" width="32" height="608.027" filterUnits="userSpaceOnUse"><feOffset input="SourceAlpha"/><feGaussianBlur stdDeviation="5" result="eh"/><feFlood flood-color="#1ff2fd"/><feComposite operator="in" in2="eh"/><feComposite in="SourceGraphic"/></filter><filter id="ei" x="385.637" y="19.214" width="32" height="608.027" filterUnits="userSpaceOnUse"><feOffset input="SourceAlpha"/><feGaussianBlur stdDeviation="5" result="ej"/><feFlood flood-color="#1ff2fd"/><feComposite operator="in" in2="ej"/><feComposite in="SourceGraphic"/></filter><filter id="ek" x="418.74" y="19.214" width="32" height="608.027" filterUnits="userSpaceOnUse"><feOffset input="SourceAlpha"/><feGaussianBlur stdDeviation="5" result="el"/><feFlood flood-color="#1ff2fd"/><feComposite operator="in" in2="el"/><feComposite in="SourceGraphic"/></filter><filter id="em" x="451.844" y="19.214" width="32" height="608.027" filterUnits="userSpaceOnUse"><feOffset input="SourceAlpha"/><feGaussianBlur stdDeviation="5" result="en"/><feFlood flood-color="#1ff2fd"/><feComposite operator="in" in2="en"/><feComposite in="SourceGraphic"/></filter><filter id="eo" x="484.947" y="19.214" width="32" height="608.027" filterUnits="userSpaceOnUse"><feOffset input="SourceAlpha"/><feGaussianBlur stdDeviation="5" result="ep"/><feFlood flood-color="#1ff2fd"/><feComposite operator="in" in2="ep"/><feComposite in="SourceGraphic"/></filter><filter id="eq" x="518.051" y="19.214" width="32" height="608.027" filterUnits="userSpaceOnUse"><feOffset input="SourceAlpha"/><feGaussianBlur stdDeviation="5" result="er"/><feFlood flood-color="#1ff2fd"/><feComposite operator="in" in2="er"/><feComposite in="SourceGraphic"/></filter><filter id="es" x="551.153" y="19.214" width="32" height="608.027" filterUnits="userSpaceOnUse"><feOffset input="SourceAlpha"/><feGaussianBlur stdDeviation="5" result="et"/><feFlood flood-color="#1ff2fd"/><feComposite operator="in" in2="et"/><feComposite in="SourceGraphic"/></filter><filter id="eu" x="584.257" y="19.214" width="32" height="608.027" filterUnits="userSpaceOnUse"><feOffset input="SourceAlpha"/><feGaussianBlur stdDeviation="5" result="ev"/><feFlood flood-color="#1ff2fd"/><feComposite operator="in" in2="ev"/><feComposite in="SourceGraphic"/></filter><filter id="ew" x="617.36" y="19.214" width="32" height="608.027" filterUnits="userSpaceOnUse"><feOffset input="SourceAlpha"/><feGaussianBlur stdDeviation="5" result="ex"/><feFlood flood-color="#1ff2fd"/><feComposite operator="in" in2="ex"/><feComposite in="SourceGraphic"/></filter><filter id="ey" x="650.464" y="19.214" width="32" height="608.027" filterUnits="userSpaceOnUse"><feOffset input="SourceAlpha"/><feGaussianBlur stdDeviation="5" result="ez"/><feFlood flood-color="#1ff2fd"/><feComposite operator="in" in2="ez"/><feComposite in="SourceGraphic"/></filter></defs><g class="a" transform="translate(-909.663 100.214)"><g class="b" transform="translate(940.163 -70)"><path class="c" d="M2813.145,1209v578.027" transform="translate(-2813.145 -1209)"/><path class="c" d="M2813.145,1209v578.027" transform="translate(-2780.042 -1209)"/><path class="c" d="M2813.145,1209v578.027" transform="translate(-2746.938 -1209)"/><path class="c" d="M2813.145,1209v578.027" transform="translate(-2713.835 -1209)"/><path class="c" d="M2813.145,1209v578.027" transform="translate(-2680.731 -1209)"/><path class="c" d="M2813.145,1209v578.027" transform="translate(-2647.628 -1209)"/><path class="c" d="M2813.145,1209v578.027" transform="translate(-2614.525 -1209)"/><path class="c" d="M2813.145,1209v578.027" transform="translate(-2581.421 -1209)"/><path class="c" d="M0,0V631.767" transform="translate(631.767 0.286) rotate(90)"/><path class="c" d="M0,0V631.767" transform="translate(631.767 33.389) rotate(90)"/><path class="c" d="M0,0V631.767" transform="translate(631.767 66.492) rotate(90)"/><path class="c" d="M0,0V631.767" transform="translate(631.767 99.596) rotate(90)"/><path class="c" d="M0,0V631.767" transform="translate(631.767 128.666) rotate(90)"/><path class="c" d="M0,0V631.767" transform="translate(631.767 160.763) rotate(90)"/><path class="c" d="M0,0V631.767" transform="translate(631.767 192.86) rotate(90)"/><path class="c" d="M0,0V631.767" transform="translate(631.767 224.957) rotate(90)"/><path class="c" d="M0,0V631.767" transform="translate(631.767 257.055) rotate(90)"/><path class="c" d="M0,0V631.767" transform="translate(631.767 289.152) rotate(90)"/><path class="c" d="M0,0V631.767" transform="translate(631.767 321.249) rotate(90)"/><path class="c" d="M0,0V631.767" transform="translate(631.767 353.346) rotate(90)"/><path class="c" d="M0,0V631.767" transform="translate(631.767 385.443) rotate(90)"/><path class="c" d="M0,0V631.767" transform="translate(631.767 417.541) rotate(90)"/><path class="c" d="M0,0V631.767" transform="translate(631.767 449.638) rotate(90)"/><path class="c" d="M0,0V631.767" transform="translate(631.767 478.717) rotate(90)"/><path class="c" d="M0,0V631.767" transform="translate(631.767 511.82) rotate(90)"/><path class="c" d="M0,0V631.767" transform="translate(631.767 544.923) rotate(90)"/><path class="c" d="M0,0V631.767" transform="translate(631.767 578.027) rotate(90)"/><path class="c" d="M2813.145,1209v578.027" transform="translate(-2548.318 -1209)"/><path class="c" d="M2813.145,1209v578.027" transform="translate(-2515.215 -1209)"/><path class="c" d="M2813.145,1209v578.027" transform="translate(-2482.111 -1209)"/><path class="c" d="M2813.145,1209v578.027" transform="translate(-2449.008 -1209)"/><path class="c" d="M2813.145,1209v578.027" transform="translate(-2415.905 -1209)"/><path class="c" d="M2813.145,1209v578.027" transform="translate(-2382.802 -1209)"/><path class="c" d="M2813.145,1209v578.027" transform="translate(-2349.698 -1209)"/><path class="c" d="M2813.145,1209v578.027" transform="translate(-2316.595 -1209)"/><path class="c" d="M2813.145,1209v578.027" transform="translate(-2283.491 -1209)"/><path class="c" d="M2813.145,1209v578.027" transform="translate(-2250.388 -1209)"/><path class="c" d="M2813.145,1209v578.027" transform="translate(-2217.285 -1209)"/><path class="c" d="M2813.145,1209v578.027" transform="translate(-2184.181 -1209)"/></g><g class="b" transform="translate(940.163 -70)"><g class="cf" transform="matrix(1, 0, 0, 1, -30.5, -30.21)"><path class="d" d="M2813.145,1209v578.027" transform="translate(-2782.64 -1178.79)"/></g><g class="ce" transform="matrix(1, 0, 0, 1, -30.5, -30.21)"><path class="d" d="M2813.145,1209v578.027" transform="translate(-2749.54 -1178.79)"/></g><g class="cd" transform="matrix(1, 0, 0, 1, -30.5, -30.21)"><path class="d" d="M2813.145,1209v578.027" transform="translate(-2716.44 -1178.79)"/></g><g class="cc" transform="matrix(1, 0, 0, 1, -30.5, -30.21)"><path class="d" d="M2813.145,1209v578.027" transform="translate(-2683.33 -1178.79)"/></g><g class="cb" transform="matrix(1, 0, 0, 1, -30.5, -30.21)"><path class="d" d="M2813.145,1209v578.027" transform="translate(-2650.23 -1178.79)"/></g><g class="ca" transform="matrix(1, 0, 0, 1, -30.5, -30.21)"><path class="d" d="M2813.145,1209v578.027" transform="translate(-2617.13 -1178.79)"/></g><g class="bz" transform="matrix(1, 0, 0, 1, -30.5, -30.21)"><path class="d" d="M2813.145,1209v578.027" transform="translate(-2584.02 -1178.79)"/></g><g class="by" transform="matrix(1, 0, 0, 1, -30.5, -30.21)"><path class="d" d="M2813.145,1209v578.027" transform="translate(-2550.92 -1178.79)"/></g><g class="bx" transform="matrix(1, 0, 0, 1, -30.5, -30.21)"><path class="d" d="M0,0V631.767" transform="translate(662.27 30.5) rotate(90)"/></g><g class="bw" transform="matrix(1, 0, 0, 1, -30.5, -30.21)"><path class="d" d="M0,0V631.767" transform="translate(662.27 63.6) rotate(90)"/></g><g class="bv" transform="matrix(1, 0, 0, 1, -30.5, -30.21)"><path class="d" d="M0,0V631.767" transform="translate(662.27 96.71) rotate(90)"/></g><g class="bu" transform="matrix(1, 0, 0, 1, -30.5, -30.21)"><path class="d" d="M0,0V631.767" transform="translate(662.27 129.81) rotate(90)"/></g><g class="bt" transform="matrix(1, 0, 0, 1, -30.5, -30.21)"><path class="d" d="M0,0V631.767" transform="translate(662.27 158.88) rotate(90)"/></g><g class="bs" transform="matrix(1, 0, 0, 1, -30.5, -30.21)"><path class="d" d="M0,0V631.767" transform="translate(662.27 190.98) rotate(90)"/></g><g class="br" transform="matrix(1, 0, 0, 1, -30.5, -30.21)"><path class="d" d="M0,0V631.767" transform="translate(662.27 223.07) rotate(90)"/></g><g class="bq" transform="matrix(1, 0, 0, 1, -30.5, -30.21)"><path class="d" d="M0,0V631.767" transform="translate(662.27 255.17) rotate(90)"/></g><g class="bp" transform="matrix(1, 0, 0, 1, -30.5, -30.21)"><path class="d" d="M0,0V631.767" transform="translate(662.27 287.27) rotate(90)"/></g><g class="bo" transform="matrix(1, 0, 0, 1, -30.5, -30.21)"><path class="d" d="M0,0V631.767" transform="translate(662.27 319.37) rotate(90)"/></g><g class="bn" transform="matrix(1, 0, 0, 1, -30.5, -30.21)"><path class="d" d="M0,0V631.767" transform="translate(662.27 351.46) rotate(90)"/></g><g class="bm" transform="matrix(1, 0, 0, 1, -30.5, -30.21)"><path class="d" d="M0,0V631.767" transform="translate(662.27 383.56) rotate(90)"/></g><g class="bl" transform="matrix(1, 0, 0, 1, -30.5, -30.21)"><path class="d" d="M0,0V631.767" transform="translate(662.27 415.66) rotate(90)"/></g><g class="bk" transform="matrix(1, 0, 0, 1, -30.5, -30.21)"><path class="d" d="M0,0V631.767" transform="translate(662.27 447.75) rotate(90)"/></g><g class="bj" transform="matrix(1, 0, 0, 1, -30.5, -30.21)"><path class="d" d="M0,0V631.767" transform="translate(662.27 479.85) rotate(90)"/></g><g class="bi" transform="matrix(1, 0, 0, 1, -30.5, -30.21)"><path class="d" d="M0,0V631.767" transform="translate(662.27 508.93) rotate(90)"/></g><g class="bh" transform="matrix(1, 0, 0, 1, -30.5, -30.21)"><path class="d" d="M0,0V631.767" transform="translate(662.27 542.03) rotate(90)"/></g><g class="bg" transform="matrix(1, 0, 0, 1, -30.5, -30.21)"><path class="d" d="M0,0V631.767" transform="translate(662.27 575.14) rotate(90)"/></g><g class="bf" transform="matrix(1, 0, 0, 1, -30.5, -30.21)"><path class="d" d="M0,0V631.767" transform="translate(662.27 608.24) rotate(90)"/></g><g class="be" transform="matrix(1, 0, 0, 1, -30.5, -30.21)"><path class="d" d="M2813.145,1209v578.027" transform="translate(-2517.82 -1178.79)"/></g><g class="bd" transform="matrix(1, 0, 0, 1, -30.5, -30.21)"><path class="d" d="M2813.145,1209v578.027" transform="translate(-2484.71 -1178.79)"/></g><g class="bc" transform="matrix(1, 0, 0, 1, -30.5, -30.21)"><path class="d" d="M2813.145,1209v578.027" transform="translate(-2451.61 -1178.79)"/></g><g class="bb" transform="matrix(1, 0, 0, 1, -30.5, -30.21)"><path class="d" d="M2813.145,1209v578.027" transform="translate(-2418.51 -1178.79)"/></g><g class="ba" transform="matrix(1, 0, 0, 1, -30.5, -30.21)"><path class="d" d="M2813.145,1209v578.027" transform="translate(-2385.4 -1178.79)"/></g><g class="az" transform="matrix(1, 0, 0, 1, -30.5, -30.21)"><path class="d" d="M2813.145,1209v578.027" transform="translate(-2352.3 -1178.79)"/></g><g class="ay" transform="matrix(1, 0, 0, 1, -30.5, -30.21)"><path class="d" d="M2813.145,1209v578.027" transform="translate(-2319.2 -1178.79)"/></g><g class="ax" transform="matrix(1, 0, 0, 1, -30.5, -30.21)"><path class="d" d="M2813.145,1209v578.027" transform="translate(-2286.09 -1178.79)"/></g><g class="aw" transform="matrix(1, 0, 0, 1, -30.5, -30.21)"><path class="d" d="M2813.145,1209v578.027" transform="translate(-2252.99 -1178.79)"/></g><g class="av" transform="matrix(1, 0, 0, 1, -30.5, -30.21)"><path class="d" d="M2813.145,1209v578.027" transform="translate(-2219.89 -1178.79)"/></g><g class="au" transform="matrix(1, 0, 0, 1, -30.5, -30.21)"><path class="d" d="M2813.145,1209v578.027" transform="translate(-2186.78 -1178.79)"/></g><g class="at" transform="matrix(1, 0, 0, 1, -30.5, -30.21)"><path class="d" d="M2813.145,1209v578.027" transform="translate(-2153.68 -1178.79)"/></g></g><g class="e" transform="translate(637.163 -161)"><g class="as" transform="matrix(1, 0, 0, 1, 272.5, 60.79)"><path class="f" d="M2813.145,1209v578.027" transform="translate(-2775.64 -1174.79)"/></g><g class="ar" transform="matrix(1, 0, 0, 1, 272.5, 60.79)"><path class="f" d="M2813.145,1209v578.027" transform="translate(-2742.54 -1174.79)"/></g><g class="aq" transform="matrix(1, 0, 0, 1, 272.5, 60.79)"><path class="f" d="M2813.145,1209v578.027" transform="translate(-2709.44 -1174.79)"/></g><g class="ap" transform="matrix(1, 0, 0, 1, 272.5, 60.79)"><path class="f" d="M2813.145,1209v578.027" transform="translate(-2676.33 -1174.79)"/></g><g class="ao" transform="matrix(1, 0, 0, 1, 272.5, 60.79)"><path class="f" d="M2813.145,1209v578.027" transform="translate(-2643.23 -1174.79)"/></g><g class="an" transform="matrix(1, 0, 0, 1, 272.5, 60.79)"><path class="f" d="M2813.145,1209v578.027" transform="translate(-2610.13 -1174.79)"/></g><g class="am" transform="matrix(1, 0, 0, 1, 272.5, 60.79)"><path class="f" d="M2813.145,1209v578.027" transform="translate(-2577.02 -1174.79)"/></g><g class="al" transform="matrix(1, 0, 0, 1, 272.5, 60.79)"><path class="f" d="M2813.145,1209v578.027" transform="translate(-2543.92 -1174.79)"/></g><g class="ak" transform="matrix(1, 0, 0, 1, 272.5, 60.79)"><path class="f" d="M0,0V631.767" transform="translate(669.27 34.5) rotate(90)"/></g><g class="aj" transform="matrix(1, 0, 0, 1, 272.5, 60.79)"><path class="f" d="M0,0V631.767" transform="translate(669.27 67.6) rotate(90)"/></g><g class="ai" transform="matrix(1, 0, 0, 1, 272.5, 60.79)"><path class="f" d="M0,0V631.767" transform="translate(669.27 100.71) rotate(90)"/></g><g class="ah" transform="matrix(1, 0, 0, 1, 272.5, 60.79)"><path class="f" d="M0,0V631.767" transform="translate(669.27 133.81) rotate(90)"/></g><g class="ag" transform="matrix(1, 0, 0, 1, 272.5, 60.79)"><path class="f" d="M0,0V631.767" transform="translate(669.27 162.88) rotate(90)"/></g><g class="af" transform="matrix(1, 0, 0, 1, 272.5, 60.79)"><path class="f" d="M0,0V631.767" transform="translate(669.27 194.98) rotate(90)"/></g><g class="ae" transform="matrix(1, 0, 0, 1, 272.5, 60.79)"><path class="f" d="M0,0V631.767" transform="translate(669.27 227.07) rotate(90)"/></g><g class="ad" transform="matrix(1, 0, 0, 1, 272.5, 60.79)"><path class="f" d="M0,0V631.767" transform="translate(669.27 259.17) rotate(90)"/></g><g class="ac" transform="matrix(1, 0, 0, 1, 272.5, 60.79)"><path class="f" d="M0,0V631.767" transform="translate(669.27 291.27) rotate(90)"/></g><g class="ab" transform="matrix(1, 0, 0, 1, 272.5, 60.79)"><path class="f" d="M0,0V631.767" transform="translate(669.27 323.37) rotate(90)"/></g><g class="aa" transform="matrix(1, 0, 0, 1, 272.5, 60.79)"><path class="f" d="M0,0V631.767" transform="translate(669.27 355.46) rotate(90)"/></g><g class="z" transform="matrix(1, 0, 0, 1, 272.5, 60.79)"><path class="f" d="M0,0V631.767" transform="translate(669.27 387.56) rotate(90)"/></g><g class="y" transform="matrix(1, 0, 0, 1, 272.5, 60.79)"><path class="f" d="M0,0V631.767" transform="translate(669.27 419.66) rotate(90)"/></g><g class="x" transform="matrix(1, 0, 0, 1, 272.5, 60.79)"><path class="f" d="M0,0V631.767" transform="translate(669.27 451.75) rotate(90)"/></g><g class="w" transform="matrix(1, 0, 0, 1, 272.5, 60.79)"><path class="f" d="M0,0V631.767" transform="translate(669.27 483.85) rotate(90)"/></g><g class="v" transform="matrix(1, 0, 0, 1, 272.5, 60.79)"><path class="f" d="M0,0V631.767" transform="translate(669.27 512.93) rotate(90)"/></g><g class="u" transform="matrix(1, 0, 0, 1, 272.5, 60.79)"><path class="f" d="M0,0V631.767" transform="translate(669.27 546.03) rotate(90)"/></g><g class="t" transform="matrix(1, 0, 0, 1, 272.5, 60.79)"><path class="f" d="M0,0V631.767" transform="translate(669.27 579.14) rotate(90)"/></g><g class="s" transform="matrix(1, 0, 0, 1, 272.5, 60.79)"><path class="f" d="M0,0V631.767" transform="translate(669.27 612.24) rotate(90)"/></g><g class="r" transform="matrix(1, 0, 0, 1, 272.5, 60.79)"><path class="f" d="M2813.145,1209v578.027" transform="translate(-2510.82 -1174.79)"/></g><g class="q" transform="matrix(1, 0, 0, 1, 272.5, 60.79)"><path class="f" d="M2813.145,1209v578.027" transform="translate(-2477.71 -1174.79)"/></g><g class="p" transform="matrix(1, 0, 0, 1, 272.5, 60.79)"><path class="f" d="M2813.145,1209v578.027" transform="translate(-2444.61 -1174.79)"/></g><g class="o" transform="matrix(1, 0, 0, 1, 272.5, 60.79)"><path class="f" d="M2813.145,1209v578.027" transform="translate(-2411.51 -1174.79)"/></g><g class="n" transform="matrix(1, 0, 0, 1, 272.5, 60.79)"><path class="f" d="M2813.145,1209v578.027" transform="translate(-2378.4 -1174.79)"/></g><g class="m" transform="matrix(1, 0, 0, 1, 272.5, 60.79)"><path class="f" d="M2813.145,1209v578.027" transform="translate(-2345.3 -1174.79)"/></g><g class="l" transform="matrix(1, 0, 0, 1, 272.5, 60.79)"><path class="f" d="M2813.145,1209v578.027" transform="translate(-2312.2 -1174.79)"/></g><g class="k" transform="matrix(1, 0, 0, 1, 272.5, 60.79)"><path class="f" d="M2813.145,1209v578.027" transform="translate(-2279.09 -1174.79)"/></g><g class="j" transform="matrix(1, 0, 0, 1, 272.5, 60.79)"><path class="f" d="M2813.145,1209v578.027" transform="translate(-2245.99 -1174.79)"/></g><g class="i" transform="matrix(1, 0, 0, 1, 272.5, 60.79)"><path class="f" d="M2813.145,1209v578.027" transform="translate(-2212.89 -1174.79)"/></g><g class="h" transform="matrix(1, 0, 0, 1, 272.5, 60.79)"><path class="f" d="M2813.145,1209v578.027" transform="translate(-2179.78 -1174.79)"/></g><g class="g" transform="matrix(1, 0, 0, 1, 272.5, 60.79)"><path class="f" d="M2813.145,1209v578.027" transform="translate(-2146.68 -1174.79)"/></g></g></g></svg>