<svg xmlns="http://www.w3.org/2000/svg" width="101.665" height="60.114" viewBox="0 0 101.665 60.114"><defs><style>.a{fill:#fff;}</style></defs><g transform="translate(-215.883 -21.443)"><g transform="translate(215.883 21.443)"><path class="a" d="M942.384,76.472a37.343,37.343,0,0,1-4.712,2.595c-.24-1.481-.493-2.828-.67-4.186q-.345-2.682-.584-5.377c-.136-1.528-.19-3.064-.3-4.594-.161-2.228-.359-4.453-.509-6.682-.212-3.14-.4-6.281-.586-9.422-.033-.564.022-1.133,0-1.7a6.368,6.368,0,0,0-.176-.93l-.227-.02a1.46,1.46,0,0,0-.235.409c-.228,1.221-.429,2.446-.653,3.668a56.375,56.375,0,0,0-.886,8c-.063,1.624-.2,3.245-.267,4.868-.112,2.847-.176,5.7-.3,8.54-.062,1.415-.219,2.827-.34,4.319l-5.821,2.853c.251-2.834-.508-5.4-.923-8.012-.433-2.722-.855-5.444-1.284-8.166-.274-1.73-.546-3.464-.84-5.191a6.78,6.78,0,0,0-.319-.988l-.217.017a5.567,5.567,0,0,0-.128.726c-.112,2.376-.216,4.752-.326,7.128q-.119,2.572-.251,5.143c-.1,1.9-.184,3.8-.311,5.693-.056.808-.2,1.61-.335,2.646l-5.327,1.36c.044-.626.071-1.153.12-1.678s.127-1.033.17-1.551c.191-2.3.365-4.6.558-6.892.3-3.539.622-7.077.919-10.617.13-1.553.21-3.11.332-4.663.175-2.225.37-4.449.554-6.674.095-1.146.172-2.295.284-3.439.164-1.678.378-3.352.522-5.032.244-2.84.447-5.685.675-8.526.175-2.158.369-4.314.573-6.689l5.031-1.847c.019.323.045.579.047.834.011,1.292-.016,2.585.032,3.876.059,1.6.171,3.2.275,4.8q.279,4.3.578,8.6c.173,2.461.327,4.925.558,7.381.154,1.619.425,3.229.664,4.84a5.452,5.452,0,0,0,.286.884l.228.034a6.064,6.064,0,0,0,.279-.793q.725-3.645,1.423-7.3c.231-1.2.433-2.4.676-3.6.259-1.275.562-2.542.826-3.816.219-1.056.406-2.121.614-3.177q.512-2.628,1.03-5.256.377-1.924.75-3.848c.2-1.037.4-2.073.614-3.2l5.838-1.321c-.182.861-.319,1.553-.476,2.242-.335,1.471-.744,2.928-1,4.412a11.086,11.086,0,0,0,.043,2.288c.017.4.068.808.094,1.212.209,3.342.4,6.686.628,10.027.188,2.775.438,5.545.614,8.32.217,3.413.391,6.829.572,10.243.092,1.736.142,3.476.24,5.212.08,1.419.176,2.838.317,4.252.153,1.54.353,3.076.558,4.611C942.027,74.324,942.2,75.323,942.384,76.472Z" transform="translate(-864.731 -19.356)"/><path class="a" d="M455.389,83.25l-4.81,1.421c0-.7-.007-1.318,0-1.937.04-3.24.1-6.481.121-9.721.035-5.487.024-10.975.071-16.462.069-7.957.172-15.913.266-23.869a5.319,5.319,0,0,1,.1-.721l5.47-2.154c.028.287.071.517.07.746,0,2.676-.1,5.355.011,8.025a30.512,30.512,0,0,0,.746,4.394c.223,1.166.492,2.324.751,3.483.342,1.531.693,3.059,1.04,4.589.223.99.457,1.979.67,2.973.33,1.563.642,3.128.966,4.692q.535,2.583,1.081,5.162a3.2,3.2,0,0,0,.226.455,3.907,3.907,0,0,0,.408-.965c.332-4.081.636-8.163.956-12.245.181-2.316.359-4.633.576-6.947.322-3.44.685-6.875,1.015-10.314.142-1.482.243-2.968.367-4.5l5.441-1.243c-.031.406-.056.733-.08,1.061l-.837,10.493c-.187,2.321-.368,4.642-.57,6.962-.294,3.377-.614,6.754-.9,10.129-.2,2.34-.366,4.684-.561,7.025-.18,2.161-.382,4.32-.568,6.48-.188,2.177-.363,4.35-.551,6.524q-.294,3.34-.6,6.678a1.327,1.327,0,0,1-.105.346l-5.435,2.847-3.744-19.678-.3-.045a2.385,2.385,0,0,0-.242.676c-.04.949,0,1.906-.056,2.856q-.258,4.394-.571,8.785C455.716,80.532,455.543,81.808,455.389,83.25Z" transform="translate(-425.427 -26.541)"/><path class="a" d="M1419.8,120.334c1.208-1.135,1.743-2.552,2.816-3.676l2.2,6.8a33.112,33.112,0,0,1-1.8,2.791,2.613,2.613,0,0,0-.476,2.828c.9,2.46,1.575,5,2.37,7.5.6,1.887,1.258,3.755,1.867,5.637.294.91.536,1.837.844,2.9l-4.88-.965c-.649-1.927-1.269-3.851-1.948-5.758-.662-1.859-1.139-3.788-1.9-5.613l-.245.012-7.977,11.9c-1.589-.571-3.093-1.091-4.577-1.658a1.066,1.066,0,0,1-.818-1.11c.05-.982.04-1.968.033-2.952-.022-3.378-.022-6.757-.089-10.135-.1-5.031-.258-10.06-.377-15.091-.1-4.1-.167-8.2-.258-12.3-.073-3.237-.163-6.475-.245-9.715-.006-.223,0-.452,0-.711l.58-.362,6.1,2.121Zm-9.154-11.721v25.052c.344-.146.525-.164.592-.261.425-.611.822-1.241,1.233-1.862.9-1.369,1.746-2.785,2.735-4.091.85-1.124,1.415-2.159.8-3.632-.636-1.533-1.055-3.155-1.58-4.735-.546-1.645-1.1-3.288-1.659-4.93-.577-1.7-1.152-3.408-1.747-5.1-.061-.166-.248-.289-.377-.434Z" transform="translate(-1325.961 -85.59)"/><path class="a" d="M16.641,93.285,22.6,91.2l.709.314a4.809,4.809,0,0,1,.132.885c-.1,3.74-.244,7.474-.331,11.211-.122,5.28-.2,10.561-.308,15.842-.088,4.354-.191,8.7-.284,13.052q-.107,4.994-.207,9.988c0,.223-.037.447-.065.758L17,145.219l-8.06-11.989-.218.059L4.935,144.661l-4.935,1c.142-.495.252-.911.381-1.321q.975-3.085,1.959-6.168c.43-1.347.868-2.691,1.3-4.037.614-1.906,1.235-3.808,1.816-5.723a1.038,1.038,0,0,0-.188-.735,33.247,33.247,0,0,0-1.932-2.786c-.58-.716-.287-1.36-.032-2.017.526-1.354,1.107-2.686,1.649-4.033.147-.366.236-.755.376-1.214,1.082.893,1.407,2.382,2.556,3.2ZM16.6,134.157l.339-.07.245-24.855-.314-.082a4,4,0,0,0-.377.67c-.426,1.295-.813,2.6-1.245,3.9-.447,1.34-.941,2.666-1.4,4.006-.761,2.256-1.5,4.521-2.257,6.776a2.5,2.5,0,0,0,.244,2.646c1.137,1.451,2.1,3.037,3.13,4.569.549.814,1.087,1.631,1.629,2.445Z" transform="translate(0 -86.11)"/><path class="a" d="M783,371.6l-5.4.664c.247-2.8.489-5.45.713-8.1.135-1.6.235-3.2.363-4.8.191-2.384.395-4.767.591-7.151.094-1.146.167-2.293.279-3.438.232-2.466.492-4.931.717-7.4.167-1.825.288-3.654.447-5.48.067-.764.18-1.524.285-2.39l4.721-1.047c0,.859.03,1.571-.007,2.279-.06,1.148-.162,2.292-.252,3.438-.172,2.18-.37,4.359-.517,6.541-.138,2.041-.223,4.087-.335,6.13-.083,1.442-.167,2.883-.276,4.323-.274,3.491-.569,6.981-.836,10.474-.132,1.739-.218,3.481-.339,5.221A4.607,4.607,0,0,1,783,371.6Z" transform="translate(-734.198 -313.903)"/><path class="a" d="M838.6,1.5,843.915,0l-1.392,15.455-5.053,1.122Z" transform="translate(-790.726)"/></g></g></svg>